HIERARCHY
ROOT Hips
{
  OFFSET 5.84602e-005 68.8428 3.50346
  CHANNELS 6 Xposition Yposition Zposition Zrotation Xrotation Yrotation
  JOINT Spine
  {
    OFFSET 0 8.597 -4.6522
    CHANNELS 3 Zrotation Xrotation Yrotation
    JOINT Spine1
    {
      OFFSET 0 7.8454 0.4098
      CHANNELS 3 Zrotation Xrotation Yrotation
      JOINT Spine2
      {
        OFFSET 0 9.7078 -2.1609
        CHANNELS 3 Zrotation Xrotation Yrotation
        JOINT Neck
        {
          OFFSET 0 21.8761 -0.4549
          CHANNELS 3 Zrotation Xrotation Yrotation
          JOINT Head
          {
            OFFSET 0 12.3537 3.3602
            CHANNELS 3 Zrotation Xrotation Yrotation
            End Site
            {
              OFFSET 0.0001 18.9506 0.5657
            }
          }
        }
        JOINT LeftShoulder
        {
          OFFSET 2.2086 21.1115 7.2329
          CHANNELS 3 Zrotation Xrotation Yrotation
          JOINT LeftArm
          {
            OFFSET 13.1193 3.0282 -4.8998
            CHANNELS 3 Zrotation Xrotation Yrotation
            JOINT LeftForeArm
            {
              OFFSET 27.4081 -0.0973053 -0.2375
              CHANNELS 3 Zrotation Xrotation Yrotation
              JOINT LeftHand
              {
                OFFSET 22.8641 0.0662994 -0.1369
                CHANNELS 3 Zrotation Xrotation Yrotation
                JOINT LeftHandIndex1
                {
                  OFFSET 8.8614 0.775009 2.4612
                  CHANNELS 3 Zrotation Xrotation Yrotation
                  JOINT LeftHandIndex2
                  {
                    OFFSET 3.3146 -0.808304 0.5841
                    CHANNELS 3 Zrotation Xrotation Yrotation
                    JOINT LeftHandIndex3
                    {
                      OFFSET 2.2628 -0.552002 0.3989
                      CHANNELS 3 Zrotation Xrotation Yrotation
                      End Site
                      {
                        OFFSET 1.6102 -0.4807 0.2612
                      }
                    }
                  }
                }
                JOINT LeftHandMiddle1
                {
                  OFFSET 8.9937 0.895004 0.2143
                  CHANNELS 3 Zrotation Xrotation Yrotation
                  JOINT LeftHandMiddle2
                  {
                    OFFSET 4.0984 0.0113983 -0.0242
                    CHANNELS 3 Zrotation Xrotation Yrotation
                    JOINT LeftHandMiddle3
                    {
                      OFFSET 2.2716 0.00689697 -0.0138001
                      CHANNELS 3 Zrotation Xrotation Yrotation
                      End Site
                      {
                        OFFSET 2.0404 -0.1441 0.0027
                      }
                    }
                  }
                }
                JOINT LeftHandRing1
                {
                  OFFSET 8.5234 0.597198 -2.0164
                  CHANNELS 3 Zrotation Xrotation Yrotation
                  JOINT LeftHandRing2
                  {
                    OFFSET 3.7188 -0.188293 -0.2328
                    CHANNELS 3 Zrotation Xrotation Yrotation
                    JOINT LeftHandRing3
                    {
                      OFFSET 2.1191 -0.106598 -0.1332
                      CHANNELS 3 Zrotation Xrotation Yrotation
                      End Site
                      {
                        OFFSET 1.8737 -0.2304 -0.0886
                      }
                    }
                  }
                }
                JOINT LeftHandPinky1
                {
                  OFFSET 7.9094 -0.601089 -3.4825
                  CHANNELS 3 Zrotation Xrotation Yrotation
                  JOINT LeftHandPinky2
                  {
                    OFFSET 2.2874 -0.477005 -0.6314
                    CHANNELS 3 Zrotation Xrotation Yrotation
                    JOINT LeftHandPinky3
                    {
                      OFFSET 1.6774 -0.349396 -0.4633
                      CHANNELS 3 Zrotation Xrotation Yrotation
                      End Site
                      {
                        OFFSET 1.4888 -0.4091 -0.3416
                      }
                    }
                  }
                }
                JOINT LeftHandThumb1
                {
                  OFFSET 1.833 -1.3875 1.3896
                  CHANNELS 3 Zrotation Xrotation Yrotation
                  JOINT LeftHandThumb2
                  {
                    OFFSET 3.4129 -1.121 2.5732
                    CHANNELS 3 Zrotation Xrotation Yrotation
                    JOINT LeftHandThumb3
                    {
                      OFFSET 2.2474 -0.804199 1.6192
                      CHANNELS 3 Zrotation Xrotation Yrotation
                      End Site
                      {
                        OFFSET 1.6527 -0.5689 1.1317
                      }
                    }
                  }
                }
              }
            }
          }
        }
        JOINT RightShoulder
        {
          OFFSET -2.2086 21.1115 7.2329
          CHANNELS 3 Zrotation Xrotation Yrotation
          JOINT RightArm
          {
            OFFSET -13.1216 3.0287 -4.9007
            CHANNELS 3 Zrotation Xrotation Yrotation
            JOINT RightForeArm
            {
              OFFSET -27.4081 -0.0973053 -0.2375
              CHANNELS 3 Zrotation Xrotation Yrotation
              JOINT RightHand
              {
                OFFSET -22.8641 0.0664063 -0.1369
                CHANNELS 3 Zrotation Xrotation Yrotation
                JOINT RightHandIndex1
                {
                  OFFSET -8.8614 0.774994 2.4612
                  CHANNELS 3 Zrotation Xrotation Yrotation
                  JOINT RightHandIndex2
                  {
                    OFFSET -3.3146 -0.808304 0.5841
                    CHANNELS 3 Zrotation Xrotation Yrotation
                    JOINT RightHandIndex3
                    {
                      OFFSET -2.2628 -0.552002 0.3989
                      CHANNELS 3 Zrotation Xrotation Yrotation
                      End Site
                      {
                        OFFSET -1.6102 -0.4807 0.2612
                      }
                    }
                  }
                }
                JOINT RightHandMiddle1
                {
                  OFFSET -8.9937 0.894989 0.2143
                  CHANNELS 3 Zrotation Xrotation Yrotation
                  JOINT RightHandMiddle2
                  {
                    OFFSET -4.0984 0.0113983 -0.0242
                    CHANNELS 3 Zrotation Xrotation Yrotation
                    JOINT RightHandMiddle3
                    {
                      OFFSET -2.2716 0.00691223 -0.0138001
                      CHANNELS 3 Zrotation Xrotation Yrotation
                      End Site
                      {
                        OFFSET -2.0404 -0.1441 0.0027
                      }
                    }
                  }
                }
                JOINT RightHandRing1
                {
                  OFFSET -8.5234 0.597198 -2.0164
                  CHANNELS 3 Zrotation Xrotation Yrotation
                  JOINT RightHandRing2
                  {
                    OFFSET -3.7188 -0.188309 -0.2328
                    CHANNELS 3 Zrotation Xrotation Yrotation
                    JOINT RightHandRing3
                    {
                      OFFSET -2.1191 -0.106598 -0.1332
                      CHANNELS 3 Zrotation Xrotation Yrotation
                      End Site
                      {
                        OFFSET -1.8737 -0.2304 -0.0886
                      }
                    }
                  }
                }
                JOINT RightHandPinky1
                {
                  OFFSET -7.9094 -0.601105 -3.4825
                  CHANNELS 3 Zrotation Xrotation Yrotation
                  JOINT RightHandPinky2
                  {
                    OFFSET -2.2874 -0.477005 -0.6314
                    CHANNELS 3 Zrotation Xrotation Yrotation
                    JOINT RightHandPinky3
                    {
                      OFFSET -1.6774 -0.349396 -0.4633
                      CHANNELS 3 Zrotation Xrotation Yrotation
                      End Site
                      {
                        OFFSET -1.4888 -0.4091 -0.3416
                      }
                    }
                  }
                }
                JOINT RightHandThumb1
                {
                  OFFSET -1.833 -1.38751 1.3896
                  CHANNELS 3 Zrotation Xrotation Yrotation
                  JOINT RightHandThumb2
                  {
                    OFFSET -3.41299 -1.12099 2.5732
                    CHANNELS 3 Zrotation Xrotation Yrotation
                    JOINT RightHandThumb3
                    {
                      OFFSET -2.24741 -0.804108 1.6192
                      CHANNELS 3 Zrotation Xrotation Yrotation
                      End Site
                      {
                        OFFSET -1.6527 -0.5689 1.1317
                      }
                    }
                  }
                }
              }
            }
          }
        }
      }
    }
  }
  JOINT RightUpLeg
  {
    OFFSET -9.1966 3.8861 -0.7581
    CHANNELS 3 Zrotation Xrotation Yrotation
    JOINT RightLeg
    {
      OFFSET -0.7359 -41.0265 0
      CHANNELS 3 Zrotation Xrotation Yrotation
      JOINT RightFoot
      {
        OFFSET 0 -40.2855 0
        CHANNELS 3 Zrotation Xrotation Yrotation
        JOINT RightToeBase
        {
          OFFSET 0 -5.6122 11.7359
          CHANNELS 3 Zrotation Xrotation Yrotation
          End Site
          {
            OFFSET 0 0 7.8731
          }
        }
      }
    }
  }
  JOINT LeftUpLeg
  {
    OFFSET 9.1965 3.8864 -0.7581
    CHANNELS 3 Zrotation Xrotation Yrotation
    JOINT LeftLeg
    {
      OFFSET 0.7359 -41.0268 0
      CHANNELS 3 Zrotation Xrotation Yrotation
      JOINT LeftFoot
      {
        OFFSET 0 -40.2855 0
        CHANNELS 3 Zrotation Xrotation Yrotation
        JOINT LeftToeBase
        {
          OFFSET 0 -5.6122 11.7359
          CHANNELS 3 Zrotation Xrotation Yrotation
          End Site
          {
            OFFSET 0 0 7.8731
          }
        }
      }
    }
  }
}
MOTION
Frames:	4
Frame Time:	0.0333333
5.84602e-005 68.8428 3.50346 0 0 -0 0 0 -0 0 0 -0 0 0 -0 0 0 -0 0 0 -0 0 0 -0 0 0 -0 0 0 -0 0 0 -0 0 0 -0 0 0 -0 0 0 -0 0 0 -0 -0.0146107 -8.87603e-005 -2.63497e-007 2.99804e-018 -2.42657e-020 -1.42182e-022 0 0 -0 -0.0187562 -0.001176 5.858e-005 5.06224e-018 3.88251e-019 1.21329e-020 0 0 -0 -0.012269 -0.00324817 0.000675346 -1.74678e-018 3.88251e-019 -0 0 0 -0 0 0 -0 0 0 -0 0 0 -0 0 0 -0 0 0 -0 0 0 -0 0 0 -0 0 0 -0 0 0 -0 0 0 -0 0.0149955 -9.10982e-005 2.64101e-007 -9.69331e-018 1.21329e-020 -4.7394e-023 0 0 -0 0.0189956 -0.00119102 -5.96516e-005 -5.41541e-019 0 2.42657e-020 0 0 -0 0.0122698 -0.00324857 -0.000673756 -2.00796e-019 0 -1.94126e-019 0 0 -0 0 0 -0 0 0 -0 3.39842 1.33031 -0.0637918 -5.65207e-008 0.834868 -0.000436188 -3.39935 -2.16518 -0.0642563 -8.89002e-024 -1.18485e-023 -1.48106e-024 -3.39844 1.35642 0.0640283 -3.18788e-007 0.782166 -0.000588827 3.39931 -2.13858 0.0634662 1.1399e-023 0 -0 
39.739 5.29554 29.1414 0 70.9971 -0 -0.323988 3.80841 -0.046821 -0.647001 7.61703 -0.0722429 -0.647001 7.61704 -0.0722426 -3.66383e-006 -24.0062 -3.73995e-007 -0.0600574 -22.3427 -0.0243369 -8.00266 -0.194442 -0.00133042 -78.963 -9.43868 -63.5196 49.406 -25.3943 -110.188 -6.99994 7.19966 -0.00315889 6.223e-007 -5.65979e-007 -1.11057e-007 -6.75868e-015 2.32081e-014 -8.74653e-015 6.223e-007 -5.65979e-007 -1.11057e-007 6.223e-007 -5.65979e-007 -1.11057e-007 -0.0146218 -8.98908e-005 4.96001e-006 8.65464e-007 -1.2949e-006 3.07035e-007 6.223e-007 -5.65979e-007 -1.11057e-007 -0.0187595 -0.00117609 6.4364e-005 8.65828e-007 -1.29482e-006 3.06974e-007 6.223e-007 -5.65979e-007 -1.11057e-007 -0.0122834 -0.00325353 0.000680988 6.22304e-007 -5.65968e-007 -1.11136e-007 6.223e-007 -5.65979e-007 -1.11057e-007 -6.75868e-015 2.32081e-014 -8.74653e-015 6.223e-007 -5.65979e-007 -1.11057e-007 7.99915 -0.1947 -0.00216355 78.9592 -9.44349 63.5163 -49.4135 -25.3859 110.161 6.99664 7.19945 -0.000130176 -6.38183e-007 -5.50085e-007 1.08199e-007 -6.38183e-007 -5.50085e-007 1.08199e-007 -6.38183e-007 -5.50085e-007 1.08199e-007 -6.38183e-007 -5.50085e-007 1.08199e-007 0.0149867 -9.13109e-005 -5.12157e-006 -6.38194e-007 -5.50071e-007 1.08272e-007 -6.38183e-007 -5.50085e-007 1.08199e-007 0.0189788 -0.00118945 -6.68116e-005 -6.38195e-007 -5.50067e-007 1.08297e-007 -6.38183e-007 -5.50085e-007 1.08199e-007 0.0122551 -0.00324375 -0.000672722 -6.38185e-007 -5.50075e-007 1.08276e-007 -6.38183e-007 -5.50085e-007 1.08199e-007 -6.38183e-007 -5.50085e-007 1.08199e-007 -6.38183e-007 -5.50085e-007 1.08199e-007 -101.729 -33.1352 -88.071 176.729 45.1542 177.278 -7.16677 12.6442 -3.65563 -8.04851e-007 2.62192e-006 -1.59738e-006 101.725 -33.1409 88.0675 -176.731 45.1539 -177.281 7.16419 12.643 3.65247 1.7435e-007 3.42065e-006 2.86093e-007 
39.7392 5.2966 29.065 0 70.9971 -0 -0.32429 3.88617 -0.0467899 -0.647633 7.77254 -0.0717221 -0.647634 7.77256 -0.0717219 3.19022e-006 -24.5614 5.44862e-007 -0.0602524 -22.6759 -0.0247633 -7.80946 -0.822311 0.396232 -79.0428 -9.22029 -63.5174 49.406 -25.3943 -110.188 -7.0539 6.90879 0.313012 6.21443e-007 -5.6691e-007 -1.11055e-007 1.00506e-006 -4.05239e-007 -6.26185e-007 6.21443e-007 -5.6691e-007 -1.11055e-007 6.21443e-007 -5.6691e-007 -1.11055e-007 -0.0146218 -8.8852e-005 -3.67276e-006 6.21455e-007 -5.66896e-007 -1.11128e-007 6.21443e-007 -5.6691e-007 -1.11055e-007 -0.0187633 -0.00117792 5.61622e-005 8.60911e-007 -1.29544e-006 2.92793e-007 6.21443e-007 -5.6691e-007 -1.11055e-007 -0.0122412 -0.00324201 0.00067914 6.21447e-007 -5.66899e-007 -1.11134e-007 6.21443e-007 -5.6691e-007 -1.11055e-007 1.00506e-006 -4.05239e-007 -6.26185e-007 6.21443e-007 -5.6691e-007 -1.11055e-007 7.82867 -0.834024 -0.418096 79.0382 -9.22353 63.509 -49.4135 -25.3858 110.161 7.06245 6.89766 -0.307198 6.37331e-007 5.51063e-007 -1.08214e-007 6.37331e-007 5.51062e-007 -1.08214e-007 6.37331e-007 5.51063e-007 -1.08214e-007 6.37331e-007 5.51063e-007 -1.08214e-007 0.0149794 -9.19753e-005 -1.4393e-005 6.37342e-007 5.51048e-007 -1.08286e-007 6.37331e-007 5.51063e-007 -1.08214e-007 0.0189949 -0.00118991 -6.06018e-005 6.37343e-007 5.51044e-007 -1.08312e-007 6.37331e-007 5.51063e-007 -1.08214e-007 0.0122797 -0.00324851 -0.000681899 6.37334e-007 5.51052e-007 -1.08291e-007 6.37331e-007 5.51063e-007 -1.08214e-007 6.37331e-007 5.51062e-007 -1.08214e-007 6.37331e-007 5.51063e-007 -1.08214e-007 -101.922 -32.9957 -88.1635 176.729 45.1509 177.275 -7.36972 12.7039 -3.50803 1.71738e-006 5.8127e-006 3.64849e-006 101.92 -33.0041 88.2094 -176.732 45.1511 -177.279 7.35034 12.6889 3.57029 9.66833e-007 3.24341e-006 -9.86929e-007 
39.7394 5.29766 28.9886 0 70.9971 -0 -0.324588 3.96396 -0.0467579 -0.64826 7.92804 -0.0711988 -0.64826 7.92805 -0.0711991 1.26386e-006 -25.1166 1.17426e-007 -0.0604518 -23.0092 -0.0251931 -7.61172 -1.44917 0.796296 -79.1225 -9.00188 -63.5149 49.406 -25.3943 -110.188 -7.10622 6.61756 0.62881 -1.19271e-015 4.27387e-015 -0 -6.20603e-007 5.67817e-007 1.11059e-007 -1.98785e-015 2.56681e-014 1.59028e-015 -1.19271e-015 4.27387e-015 -0 -0.0146181 -8.67782e-005 6.79391e-006 8.00021e-031 -2.88238e-014 1.59028e-015 -1.19271e-015 4.27387e-015 -0 -0.018726 -0.0011743 5.17739e-005 3.97569e-016 -7.20594e-016 1.59028e-015 -1.19271e-015 4.27387e-015 -0 -0.0123014 -0.00325677 0.000675961 -3.97569e-016 -3.00662e-015 -1.59028e-015 -1.19271e-015 4.27387e-015 -0 -6.20603e-007 5.67817e-007 1.11059e-007 -1.98785e-015 2.56681e-014 1.59028e-015 7.65338 -1.47248 -0.836348 79.1172 -9.00359 63.5014 -49.4135 -25.3858 110.161 7.12662 6.59545 -0.613809 -6.36496e-007 -5.52015e-007 1.08232e-007 -6.36496e-007 -5.52015e-007 1.08232e-007 -1.27299e-006 -1.10403e-006 2.16464e-007 -6.36496e-007 -5.52015e-007 1.08232e-007 0.0149913 -9.12927e-005 2.30923e-006 -1.27301e-006 -1.104e-006 2.1661e-007 -6.36496e-007 -5.52015e-007 1.08232e-007 0.0190071 -0.00119167 -5.32704e-005 -1.27302e-006 -1.10399e-006 2.16661e-007 -6.36496e-007 -5.52015e-007 1.08232e-007 0.0122486 -0.00324252 -0.000667918 -9.23804e-007 -2.79754e-007 8.47525e-007 -6.36496e-007 -5.52015e-007 1.08232e-007 -6.36496e-007 -5.52015e-007 1.08232e-007 -1.27299e-006 -1.10403e-006 2.16464e-007 -102.114 -32.8559 -88.2552 176.73 45.1475 177.272 -7.57285 12.7631 -3.36015 6.31682e-007 7.96691e-007 1.31098e-006 102.115 -32.8668 88.3507 -176.732 45.1483 -177.277 7.53665 12.7347 3.48792 -2.77454e-006 2.56086e-006 6.10625e-006 
